<svg xmlns="http://www.w3.org/2000/svg" xmlns:xlink="http://www.w3.org/1999/xlink" width="62" height="66.997" viewBox="0 0 62 66.997">
  <defs>
    <filter id="Union_1" x="0" y="0.997" width="62" height="66" filterUnits="userSpaceOnUse">
      <feOffset dy="3" input="SourceAlpha"/>
      <feGaussianBlur stdDeviation="3" result="blur"/>
      <feFlood flood-opacity="0.161"/>
      <feComposite operator="in" in2="blur"/>
      <feComposite in="SourceGraphic"/>
    </filter>
  </defs>
  <g id="cloud_4" transform="translate(-285.575 -60.003)">
    <g id="Group_1" data-name="Group 1" transform="translate(51.576 11)">
      <g transform="matrix(1, 0, 0, 1, 234, 49)" filter="url(#Union_1)">
        <path id="Union_1-2" data-name="Union 1" d="M-40.576,26a11,11,0,0,1-11-11A11.005,11.005,0,0,1-44.552,4.74q-.024-.367-.025-.741a11,11,0,0,1,11-11,10.95,10.95,0,0,1,5.492,1.467A11,11,0,0,1-18.576-11a11,11,0,0,1,11,11,10.961,10.961,0,0,1-2.953,7.5A10.963,10.963,0,0,1-7.576,15a11,11,0,0,1-11,11,11,11,0,0,1-11,11A11,11,0,0,1-40.576,26Zm11-11q0-.383.026-.76l-.05.02q.024.367.025.74Z" transform="translate(60.58 18)" fill="#b7e0d2"/>
      </g>
      <circle id="Ellipse_6" data-name="Ellipse 6" cx="11" cy="11" r="11" transform="translate(261 64)" fill="#b7e0d2"/>
    </g>
    <path id="Path_2" data-name="Path 2" d="M257.47,78a18.25,18.25,0,0,1,5.242,5.2,18.48,18.48,0,0,1,2.146,7.094A38.7,38.7,0,0,1,266.47,81.8c.917-2.571,4.68-3.8,4.68-3.8a3.48,3.48,0,0,1-4.238-1.36c-1.573-2.468-2.055-8.51-2.055-8.51s.438,4.79-1.409,7.257S257.47,78,257.47,78Z" transform="translate(48.576 19)" fill="none" stroke="#341e25" stroke-width="1.5"/>
    <path id="Path_3" data-name="Path 3" d="M257.47,81.136h0a15.764,15.764,0,0,0,1.536,1.546,16.124,16.124,0,0,1,4.061,5.3c1.972,4.049,1.287,9.809,2.29,9.348s.373-6.515,1.722-11.193c.979-3.388,5-5,5-5a3.307,3.307,0,0,1-4.525-1.793c-1.68-3.252-1.269-10.8-2.194-11.214s.468,6.311-1.5,9.563S257.47,81.136,257.47,81.136Z" transform="translate(605.341 116.858) rotate(171)" fill="none" stroke="#341e25" stroke-width="1.5"/>
  </g>
</svg>
