<svg xmlns="http://www.w3.org/2000/svg" xmlns:xlink="http://www.w3.org/1999/xlink" width="93.97" height="94.504" viewBox="0 0 93.97 94.504">
  <defs>
    <filter id="Union_1" x="0" y="0" width="93.97" height="94.504" filterUnits="userSpaceOnUse">
      <feOffset dy="3" input="SourceAlpha"/>
      <feGaussianBlur stdDeviation="3" result="blur"/>
      <feFlood flood-opacity="0.161"/>
      <feComposite operator="in" in2="blur"/>
      <feComposite in="SourceGraphic"/>
    </filter>
  </defs>
  <g id="cloud_button" transform="translate(194.396 284.19) rotate(-139)">
    <g transform="matrix(-0.75, 0.66, -0.66, -0.75, 333.16, 86.95)" filter="url(#Union_1)">
      <path id="Union_1-2" data-name="Union 1" d="M12.834,43.741A13.033,13.033,0,0,1,8.2,18.608q-.028-.434-.029-.876A12.919,12.919,0,0,1,21,4.728a12.646,12.646,0,0,1,6.407,1.734A12.8,12.8,0,0,1,51.333,13a13.052,13.052,0,0,1-3.445,8.866,13.054,13.054,0,0,1,3.445,8.867,12.919,12.919,0,0,1-12.833,13,12.834,12.834,0,1,1-25.666,0Zm12.833-13q0-.453.03-.9l-.059.023q.028.434.029.875Z" transform="translate(47.74 82.5) rotate(-139)" fill="#b7e0d2"/>
    </g>
    <ellipse id="Ellipse_6" data-name="Ellipse 6" cx="15.033" cy="14.795" rx="15.033" ry="14.795" transform="translate(258.801 64.355)" fill="#b7e0d2"/>
  </g>
</svg>
