<svg xmlns="http://www.w3.org/2000/svg" width="41.797" height="28.203" viewBox="0 0 41.797 28.203">
  <g id="kid_1" transform="translate(-80.45 -54.985)">
    <path id="Path_22" data-name="Path 22" d="M211.685,87.477a14.333,14.333,0,0,0-3.743,1.986c-1.324,1.135-2.283,1.388-1.552,2.553s2.579,1.662,4.474,2.107,1.027-.162,3.1-.324a20.421,20.421,0,0,1,4.839.324c2.214.233,2.031.689,4.017.608a6.774,6.774,0,0,0,4.291-1.581c.845-.77,2.239-.621,1.988-1.928s-.356.741-2.364.083-.153-2.618-2.71-2.791c-.271-.018-5.658-1.222-6.2-1.252-1.591-.094-.779-1.628-2.86-1.528-2.328.111-3.287.01-4.108.446S211.685,87.477,211.685,87.477Z" transform="translate(-117.828 -37.886) rotate(2)" fill="#ffdcb6"/>
    <g id="Group_2" data-name="Group 2" transform="translate(-4.275 0.591)">
      <path id="Path_7" data-name="Path 7" d="M14.328,0C7.28,0,0,6.658,0,13.074s7.28,12.59,14.328,12.59,13.866-6.174,13.866-12.59S21.377,0,14.328,0Z" transform="matrix(1, -0.017, 0.017, 1, 85.234, 56.429)" fill="none" stroke="#341e25" stroke-width="1"/>
      <path id="Path_16" data-name="Path 16" d="M87.193,59.963h0s13.152,2.653,22.219,1.909,14.049-4.887,14.049-4.887" transform="translate(2.741 0.747)" fill="none" stroke="#341e25" stroke-width="1"/>
      <g id="Path_19" data-name="Path 19" transform="translate(102.802 65.873)" fill="#341e25">
        <path d="M 1.885004997253418 4.050595760345459 C 1.601915001869202 4.050595760345459 0.7404449582099915 4.050595760345459 0.7404449582099915 2.54947566986084 C 0.7404449582099915 1.478865623474121 1.394354939460754 0.2343555986881256 2.237415075302124 0.2343555986881256 C 2.463254928588867 0.2343555986881256 2.750185012817383 0.3057155907154083 2.966135025024414 0.8621556162834167 C 3.122915029525757 1.266135573387146 3.205785036087036 1.849605560302734 3.205785036087036 2.54947566986084 C 3.205785036087036 3.503455638885498 2.724375009536743 4.050595760345459 1.885004997253418 4.050595760345459 Z" stroke="none"/>
        <path d="M 2.237414836883545 0.7343556880950928 C 1.762224912643433 0.7343556880950928 1.240444898605347 1.684325695037842 1.240444898605347 2.54947566986084 C 1.240444898605347 3.55059552192688 1.628334999084473 3.55059552192688 1.885004997253418 3.55059552192688 C 2.088015079498291 3.55059552192688 2.705784797668457 3.55059552192688 2.705784797668457 2.54947566986084 C 2.705784797668457 1.742655515670776 2.593884944915771 1.284945487976074 2.500005006790161 1.043055534362793 C 2.380204916000366 0.7343556880950928 2.294274806976318 0.7343556880950928 2.237414836883545 0.7343556880950928 M 2.237414836883545 -0.2656445503234863 C 3.465844869613647 -0.2656445503234863 3.705785036087036 1.32105565071106 3.705785036087036 2.54947566986084 C 3.705785036087036 3.777905464172363 2.997144937515259 4.550595760345459 1.885004997253418 4.550595760345459 C 0.7728750705718994 4.550595760345459 0.2404448986053467 3.777905464172363 0.2404448986053467 2.54947566986084 C 0.2404448986053467 1.32105565071106 1.008995056152344 -0.2656445503234863 2.237414836883545 -0.2656445503234863 Z" stroke="none" fill="#341e25"/>
      </g>
      <g id="Path_20" data-name="Path 20" transform="translate(92.445 64.591)" fill="#341e25">
        <path d="M 1.885004997253418 3.921271324157715 C 1.601915001869202 3.921271324157715 0.7404449582099915 3.921271324157715 0.7404449582099915 2.420161247253418 C 0.7404449582099915 1.815491199493408 0.8485849499702454 1.276161193847656 1.044934988021851 0.9015212059020996 C 1.308714985847473 0.398201197385788 1.650714993476868 0.3399912118911743 1.885004997253418 0.3399912118911743 C 2.854044914245605 0.3399912118911743 3.205785036087036 1.583991169929504 3.205785036087036 2.420161247253418 C 3.205785036087036 3.374141216278076 2.724375009536743 3.921271324157715 1.885004997253418 3.921271324157715 Z" stroke="none"/>
        <path d="M 1.885004997253418 0.8399910926818848 C 1.782315015792847 0.8399910926818848 1.641685009002686 0.8399910926818848 1.487794876098633 1.133621215820313 C 1.330605030059814 1.43355131149292 1.240444898605347 1.902481317520142 1.240444898605347 2.420161247253418 C 1.240444898605347 3.421271324157715 1.628334999084473 3.421271324157715 1.885004997253418 3.421271324157715 C 2.088015079498291 3.421271324157715 2.705784797668457 3.421271324157715 2.705784797668457 2.420161247253418 C 2.705784797668457 1.782901287078857 2.444924831390381 0.8399910926818848 1.885004997253418 0.8399910926818848 M 1.885004997253418 -0.1600089073181152 C 3.113435029983521 -0.1600089073181152 3.705785036087036 1.191731214523315 3.705785036087036 2.420161247253418 C 3.705785036087036 3.648591279983521 2.997144937515259 4.421271324157715 1.885004997253418 4.421271324157715 C 0.7728750705718994 4.421271324157715 0.2404448986053467 3.648591279983521 0.2404448986053467 2.420161247253418 C 0.2404448986053467 1.191731214523315 0.6565849781036377 -0.1600089073181152 1.885004997253418 -0.1600089073181152 Z" stroke="none" fill="#341e25"/>
      </g>
      <path id="Path_14" data-name="Path 14" d="M94.027,61s.613,2.05-.9,2.381-3.861-1.458-5.149-1.055-.589,1.768,0,2.667,2.357.93,2.357.93" transform="translate(5.985 8.423)" fill="none" stroke="#341e25" stroke-width="1"/>
      <path id="Path_15" data-name="Path 15" d="M.313,3.232A12.194,12.194,0,0,0,6.6,4c3.336-.556,6.36-4,6.36-4" transform="translate(95.105 74.348)" fill="none" stroke="#341e25" stroke-width="1"/>
    </g>
  </g>
</svg>
